<svg width="55" height="55" viewBox="0 0 55 55" fill="none" xmlns="http://www.w3.org/2000/svg">
<path d="M48.125 43.5417H52.7083V48.125H2.29166V43.5417H6.87499V9.16667C6.87499 8.55888 7.11643 7.97598 7.5462 7.54621C7.97597 7.11644 8.55887 6.875 9.16666 6.875H32.0833C32.6911 6.875 33.274 7.11644 33.7038 7.54621C34.1335 7.97598 34.375 8.55888 34.375 9.16667V43.5417H43.5417V25.2083H38.9583V20.625H45.8333C46.4411 20.625 47.024 20.8664 47.4538 21.2962C47.8835 21.726 48.125 22.3089 48.125 22.9167V43.5417ZM11.4583 11.4583V43.5417H29.7917V11.4583H11.4583ZM16.0417 25.2083H25.2083V29.7917H16.0417V25.2083ZM16.0417 16.0417H25.2083V20.625H16.0417V16.0417Z" fill="#222E44"/>
</svg>
