<svg width="25" height="25" viewBox="0 0 25 25" fill="none" xmlns="http://www.w3.org/2000/svg">
<path d="M12.5 9.37492C11.6712 9.37492 10.8763 9.70416 10.2903 10.2902C9.70424 10.8763 9.375 11.6711 9.375 12.4999C9.375 13.3287 9.70424 14.1236 10.2903 14.7096C10.8763 15.2957 11.6712 15.6249 12.5 15.6249C13.3288 15.6249 14.1237 15.2957 14.7097 14.7096C15.2958 14.1236 15.625 13.3287 15.625 12.4999C15.625 11.6711 15.2958 10.8763 14.7097 10.2902C14.1237 9.70416 13.3288 9.37492 12.5 9.37492ZM12.5 7.29159C13.8813 7.29159 15.2061 7.84032 16.1828 8.81707C17.1596 9.79382 17.7083 11.1186 17.7083 12.4999C17.7083 13.8813 17.1596 15.206 16.1828 16.1828C15.2061 17.1595 13.8813 17.7083 12.5 17.7083C11.1187 17.7083 9.7939 17.1595 8.81715 16.1828C7.8404 15.206 7.29166 13.8813 7.29166 12.4999C7.29166 11.1186 7.8404 9.79382 8.81715 8.81707C9.7939 7.84032 11.1187 7.29159 12.5 7.29159ZM19.2708 7.03117C19.2708 7.3765 19.1336 7.70769 18.8895 7.95188C18.6453 8.19607 18.3141 8.33325 17.9687 8.33325C17.6234 8.33325 17.2922 8.19607 17.048 7.95188C16.8038 7.70769 16.6667 7.3765 16.6667 7.03117C16.6667 6.68583 16.8038 6.35464 17.048 6.11046C17.2922 5.86627 17.6234 5.72909 17.9687 5.72909C18.3141 5.72909 18.6453 5.86627 18.8895 6.11046C19.1336 6.35464 19.2708 6.68583 19.2708 7.03117ZM12.5 4.16659C9.92291 4.16659 9.50208 4.17388 8.30312 4.227C7.48645 4.26554 6.93854 4.37492 6.4302 4.57284C5.97812 4.74784 5.65208 4.95721 5.3052 5.30513C4.97917 5.62013 4.72849 6.00469 4.57187 6.43013C4.37395 6.94054 4.26458 7.48742 4.22708 8.30304C4.17291 9.45304 4.16666 9.85513 4.16666 12.4999C4.16666 15.077 4.17395 15.4978 4.22708 16.6968C4.26562 17.5124 4.375 18.0614 4.57187 18.5687C4.74895 19.0218 4.95729 19.3478 5.30312 19.6937C5.65416 20.0437 5.9802 20.253 6.42812 20.426C6.9427 20.6249 7.49062 20.7353 8.30312 20.7728C9.45312 20.827 9.8552 20.8333 12.5 20.8333C15.0771 20.8333 15.4979 20.826 16.6969 20.7728C17.5115 20.7343 18.0604 20.6249 18.5687 20.428C19.0198 20.252 19.3479 20.0426 19.6937 19.6968C20.0448 19.3458 20.2542 19.0197 20.4271 18.5718C20.625 18.0583 20.7354 17.5093 20.7729 16.6968C20.8271 15.5468 20.8333 15.1447 20.8333 12.4999C20.8333 9.92284 20.826 9.502 20.7729 8.30304C20.7344 7.48846 20.625 6.93846 20.4271 6.43013C20.2701 6.00513 20.0199 5.62071 19.6948 5.30513C19.3799 4.97893 18.9953 4.72822 18.5698 4.57179C18.0594 4.37388 17.5115 4.2645 16.6969 4.227C15.5469 4.17284 15.1448 4.16659 12.5 4.16659ZM12.5 2.08325C15.3302 2.08325 15.6833 2.09367 16.7937 2.14575C17.9031 2.19784 18.6583 2.37179 19.3229 2.63013C20.0104 2.89471 20.5896 3.25304 21.1687 3.83117C21.6984 4.35189 22.1083 4.98178 22.3698 5.677C22.6271 6.34054 22.8021 7.09679 22.8542 8.20617C22.9031 9.31659 22.9167 9.66971 22.9167 12.4999C22.9167 15.3301 22.9062 15.6833 22.8542 16.7937C22.8021 17.903 22.6271 18.6583 22.3698 19.3228C22.109 20.0184 21.6991 20.6485 21.1687 21.1687C20.6479 21.6982 20.018 22.108 19.3229 22.3697C18.6594 22.627 17.9031 22.802 16.7937 22.8541C15.6833 22.903 15.3302 22.9166 12.5 22.9166C9.66979 22.9166 9.31666 22.9062 8.20625 22.8541C7.09687 22.802 6.34166 22.627 5.67708 22.3697C4.98158 22.1087 4.35159 21.6988 3.83125 21.1687C3.30146 20.648 2.89159 20.0181 2.6302 19.3228C2.37187 18.6593 2.19791 17.903 2.14583 16.7937C2.09687 15.6833 2.08333 15.3301 2.08333 12.4999C2.08333 9.66971 2.09374 9.31659 2.14583 8.20617C2.19791 7.09575 2.37187 6.34159 2.6302 5.677C2.89087 4.98136 3.30083 4.35129 3.83125 3.83117C4.35174 3.3012 4.98169 2.8913 5.67708 2.63013C6.34166 2.37179 7.09583 2.19784 8.20625 2.14575C9.31666 2.09679 9.66979 2.08325 12.5 2.08325Z" fill="#222E44"/>
</svg>
