<svg width="56" height="55" viewBox="0 0 56 55" fill="none" xmlns="http://www.w3.org/2000/svg">
<g clip-path="url(#clip0_39_251)">
<path d="M48.625 30.3462V45.8333H50.9167V50.4166H5.08334V45.8333H7.37501V30.3462C5.96419 29.4046 4.80768 28.1291 4.00813 26.6332C3.20859 25.1372 2.79074 23.467 2.79167 21.7708C2.79167 19.8756 3.30501 18.0491 4.2423 16.4931L10.4573 5.72915C10.6584 5.38078 10.9477 5.09149 11.2961 4.89035C11.6444 4.68922 12.0396 4.58332 12.4419 4.58331H43.5604C43.9627 4.58332 44.3579 4.68922 44.7062 4.89035C45.0546 5.09149 45.3439 5.38078 45.545 5.72915L51.7371 16.4587C53.1042 18.7295 53.5437 21.4397 52.9641 24.0261C52.3845 26.6125 50.8304 28.8761 48.625 30.3462ZM44.0417 32.0191C42.466 32.1959 40.8708 32.0066 39.3802 31.4661C37.8897 30.9255 36.544 30.0482 35.4479 28.9025C34.4859 29.9087 33.33 30.7095 32.0499 31.2566C30.7698 31.8037 29.3921 32.0857 28 32.0856C26.6082 32.0863 25.2308 31.805 23.9507 31.2587C22.6706 30.7124 21.5145 29.9124 20.5521 28.9071C19.4558 30.0524 18.11 30.9292 16.6195 31.4694C15.1289 32.0096 13.5338 32.1985 11.9583 32.0214V45.8333H44.0417V32.0191ZM13.7665 9.16665L8.19084 18.8214C7.64904 20.1601 7.63278 21.654 8.14531 23.0041C8.65784 24.3543 9.66135 25.4611 10.955 26.103C12.2487 26.7449 13.737 26.8745 15.1222 26.466C16.5073 26.0575 17.6871 25.1409 18.4254 23.8998C19.1931 21.9816 21.9088 21.9816 22.6788 23.8998C23.1034 24.9641 23.8374 25.8766 24.786 26.5194C25.7346 27.1622 26.8541 27.5058 28 27.5058C29.1459 27.5058 30.2654 27.1622 31.214 26.5194C32.1626 25.8766 32.8966 24.9641 33.3213 23.8998C34.089 21.9816 36.8046 21.9816 37.5746 23.8998C37.872 24.6318 38.3176 25.2945 38.8834 25.846C39.4493 26.3976 40.1231 26.8261 40.8625 27.1047C41.602 27.3833 42.391 27.5059 43.1801 27.4649C43.9692 27.4238 44.7413 27.22 45.4479 26.8662C46.1544 26.5123 46.7801 26.0162 47.2856 25.4089C47.7912 24.8016 48.1656 24.0963 48.3855 23.3373C48.6053 22.5784 48.6657 21.7821 48.563 20.9986C48.4603 20.2152 48.1966 19.4614 47.7885 18.7848L42.2313 9.16665H13.7665Z" fill="#222E44"/>
<path d="M52.5 70C52.5 67.8783 53.3429 65.8434 54.8431 64.3431C56.3434 62.8429 58.3783 62 60.5 62C62.6217 62 64.6566 62.8429 66.1569 64.3431C67.6571 65.8434 68.5 67.8783 68.5 70H52.5ZM61.5 64.083V68H66.159C65.8015 66.9914 65.1812 66.0966 64.3621 65.408C63.5431 64.7193 62.555 64.2619 61.5 64.083ZM59.5 68V64.083C58.445 64.2619 57.4569 64.7193 56.6379 65.408C55.8188 66.0966 55.1985 66.9914 54.841 68H59.5ZM60.5 61C57.185 61 54.5 58.315 54.5 55C54.5 51.685 57.185 49 60.5 49C63.815 49 66.5 51.685 66.5 55C66.5 58.315 63.815 61 60.5 61ZM60.5 59C62.71 59 64.5 57.21 64.5 55C64.5 52.79 62.71 51 60.5 51C58.29 51 56.5 52.79 56.5 55C56.5 57.21 58.29 59 60.5 59Z" fill="black"/>
</g>
<defs>
<clipPath id="clip0_39_251">
<rect width="55" height="55" fill="white" transform="translate(0.5)"/>
</clipPath>
</defs>
</svg>
