<svg width="55" height="55" viewBox="0 0 55 55" fill="none" xmlns="http://www.w3.org/2000/svg">
<g clip-path="url(#clip0_39_259)">
<path d="M45.8333 50.4167H41.25V45.8334C41.25 44.01 40.5257 42.2613 39.2364 40.972C37.9471 39.6827 36.1984 38.9584 34.375 38.9584H20.625C18.8016 38.9584 17.053 39.6827 15.7636 40.972C14.4743 42.2613 13.75 44.01 13.75 45.8334V50.4167H9.16667V45.8334C9.16667 42.7944 10.3739 39.8799 12.5227 37.7311C14.6716 35.5822 17.5861 34.375 20.625 34.375H34.375C37.4139 34.375 40.3284 35.5822 42.4773 37.7311C44.6261 39.8799 45.8333 42.7944 45.8333 45.8334V50.4167ZM27.5 29.7917C25.6943 29.7917 23.9063 29.436 22.2381 28.745C20.5699 28.054 19.0541 27.0412 17.7773 25.7644C16.5005 24.4876 15.4877 22.9718 14.7967 21.3036C14.1057 19.6354 13.75 17.8474 13.75 16.0417C13.75 14.236 14.1057 12.448 14.7967 10.7798C15.4877 9.11156 16.5005 7.59577 17.7773 6.31897C19.0541 5.04216 20.5699 4.02935 22.2381 3.33834C23.9063 2.64734 25.6943 2.29169 27.5 2.29169C31.1467 2.29169 34.6441 3.74034 37.2227 6.31897C39.8014 8.89759 41.25 12.395 41.25 16.0417C41.25 19.6884 39.8014 23.1858 37.2227 25.7644C34.6441 28.343 31.1467 29.7917 27.5 29.7917ZM27.5 25.2084C29.9312 25.2084 32.2627 24.2426 33.9818 22.5235C35.7009 20.8044 36.6667 18.4728 36.6667 16.0417C36.6667 13.6105 35.7009 11.279 33.9818 9.55987C32.2627 7.84079 29.9312 6.87502 27.5 6.87502C25.0689 6.87502 22.7373 7.84079 21.0182 9.55987C19.2991 11.279 18.3333 13.6105 18.3333 16.0417C18.3333 18.4728 19.2991 20.8044 21.0182 22.5235C22.7373 24.2426 25.0689 25.2084 27.5 25.2084Z" fill="#222E44"/>
<path d="M72 60L66.343 65.657L64.929 64.243L69.172 60L64.929 55.757L66.343 54.343L72 60ZM50.828 60L55.071 64.243L53.657 65.657L48 60L53.657 54.343L55.07 55.757L50.828 60ZM57.788 69H55.66L62.212 51H64.34L57.788 69Z" fill="black"/>
</g>
<defs>
<clipPath id="clip0_39_259">
<rect width="55" height="55" fill="white"/>
</clipPath>
</defs>
</svg>
