<svg width="25" height="25" viewBox="0 0 25 25" fill="none" xmlns="http://www.w3.org/2000/svg">
<path d="M7.5552 19.2645L8.30937 19.7051C9.58118 20.4469 11.0277 20.8363 12.5 20.8333C14.1482 20.8333 15.7593 20.3445 17.1297 19.4288C18.5002 18.5132 19.5683 17.2117 20.199 15.6889C20.8297 14.1662 20.9947 12.4907 20.6732 10.8742C20.3517 9.25766 19.558 7.7728 18.3925 6.60736C17.2271 5.44192 15.7423 4.64825 14.1257 4.32671C12.5092 4.00516 10.8337 4.17019 9.31096 4.80092C7.78825 5.43165 6.48676 6.49976 5.57108 7.87017C4.6554 9.24058 4.16666 10.8517 4.16666 12.4999C4.16666 13.9958 4.55937 15.4301 5.29583 16.6916L5.73541 17.4458L5.0552 19.9468L7.5552 19.2645ZM2.08749 22.9166L3.49583 17.7416C2.56785 16.1508 2.0803 14.3416 2.08333 12.4999C2.08333 6.74679 6.74687 2.08325 12.5 2.08325C18.2531 2.08325 22.9167 6.74679 22.9167 12.4999C22.9167 18.253 18.2531 22.9166 12.5 22.9166C10.6591 22.9196 8.85068 22.4324 7.26041 21.5051L2.08749 22.9166ZM8.74062 7.61242C8.8802 7.602 9.02083 7.602 9.16041 7.60825C9.21666 7.61242 9.27291 7.61867 9.32916 7.62492C9.49479 7.64367 9.67708 7.74471 9.73853 7.88429C10.049 8.58846 10.351 9.29784 10.6427 10.0093C10.7073 10.1676 10.6687 10.3708 10.5458 10.5687C10.4613 10.7025 10.3698 10.8318 10.2719 10.9562C10.1542 11.1072 9.90104 11.3843 9.90104 11.3843C9.90104 11.3843 9.79791 11.5072 9.83749 11.6603C9.85208 11.7187 9.89999 11.803 9.94374 11.8739L10.0052 11.9728C10.2719 12.4176 10.6302 12.8687 11.0677 13.2937C11.1927 13.4145 11.3146 13.5385 11.4458 13.6541C11.9333 14.0843 12.4854 14.4353 13.0812 14.6958L13.0865 14.6978C13.175 14.7364 13.2198 14.7572 13.349 14.8124C13.4135 14.8395 13.4802 14.8635 13.5479 14.8812C13.6179 14.899 13.6916 14.8956 13.7596 14.8715C13.8277 14.8474 13.8871 14.8036 13.9302 14.7458C14.6844 13.8322 14.7531 13.7728 14.7594 13.7728V13.7749C14.8118 13.7261 14.874 13.689 14.9419 13.6661C15.0098 13.6433 15.0818 13.6353 15.1531 13.6426C15.2156 13.6468 15.2792 13.6583 15.3375 13.6843C15.8906 13.9374 16.7958 14.3322 16.7958 14.3322L17.4021 14.6041C17.5042 14.653 17.5969 14.7687 17.6 14.8801C17.6042 14.9499 17.6104 15.0624 17.5865 15.2687C17.5531 15.5385 17.4719 15.8624 17.3906 16.0322C17.335 16.1481 17.2611 16.2543 17.1719 16.3468C17.0668 16.4572 16.9517 16.5576 16.8281 16.6468C16.7854 16.6789 16.742 16.7102 16.6979 16.7405C16.5683 16.8227 16.4352 16.8992 16.299 16.9697C16.0308 17.1122 15.7345 17.194 15.4312 17.2093C15.2385 17.2197 15.0458 17.2343 14.8521 17.2239C14.8437 17.2239 14.2604 17.1333 14.2604 17.1333C12.7794 16.7437 11.4098 16.0139 10.2604 15.002C10.025 14.7947 9.80729 14.5718 9.58437 14.3499C8.65729 13.428 7.95728 12.4333 7.53228 11.4937C7.31475 11.0325 7.19725 10.5305 7.18749 10.0208C7.1832 9.38831 7.38994 8.77249 7.77499 8.27075C7.85104 8.17284 7.92291 8.07075 8.04687 7.95304C8.17916 7.82804 8.26249 7.76138 8.35312 7.71554C8.47361 7.65516 8.60506 7.61973 8.73958 7.61138L8.74062 7.61242Z" fill="#222E44"/>
</svg>
